<svg width="192" height="192" viewBox="0 0 192 192" fill="none" xmlns="http://www.w3.org/2000/svg">
  <rect width="192" height="192" rx="24" fill="url(#gradient)"/>
  <defs>
    <linearGradient id="gradient" x1="0%" y1="0%" x2="100%" y2="100%">
      <stop offset="0%" style="stop-color:#667eea;stop-opacity:1" />
      <stop offset="100%" style="stop-color:#764ba2;stop-opacity:1" />
    </linearGradient>
  </defs>
  
  <!-- Dollar sign -->
  <path d="M96 40v16m0 80v16m-24-72h48c8.837 0 16-7.163 16-16s-7.163-16-16-16H88c-8.837 0-16-7.163-16-16s7.163-16 16-16h48m-40 32v32m0 0c0 8.837 7.163 16 16 16h32c8.837 0 16 7.163 16 16s-7.163 16-16 16H72" stroke="white" stroke-width="8" stroke-linecap="round" stroke-linejoin="round" fill="none"/>
  
  <!-- Money symbol enhancement -->
  <circle cx="96" cy="96" r="60" stroke="white" stroke-width="4" fill="none" opacity="0.3"/>
  
  <!-- Text -->
  <text x="96" y="170" font-family="Arial, sans-serif" font-size="16" font-weight="bold" text-anchor="middle" fill="white">MONEY MAKER</text>
</svg>