<svg width="512" height="512" viewBox="0 0 512 512" fill="none" xmlns="http://www.w3.org/2000/svg">
  <rect width="512" height="512" rx="64" fill="url(#gradient)"/>
  <defs>
    <linearGradient id="gradient" x1="0%" y1="0%" x2="100%" y2="100%">
      <stop offset="0%" style="stop-color:#667eea;stop-opacity:1" />
      <stop offset="100%" style="stop-color:#764ba2;stop-opacity:1" />
    </linearGradient>
  </defs>
  
  <!-- Main dollar sign -->
  <g transform="translate(256, 256)">
    <!-- Vertical line -->
    <line x1="0" y1="-120" x2="0" y2="-80" stroke="white" stroke-width="16" stroke-linecap="round"/>
    <line x1="0" y1="80" x2="0" y2="120" stroke="white" stroke-width="16" stroke-linecap="round"/>
    
    <!-- S curve -->
    <path d="M-60 -60 C-60 -80, -40 -100, 0 -100 L40 -100 C80 -100, 100 -80, 100 -40 C100 0, 80 20, 40 20 L-40 20 C-80 20, -100 40, -100 80 C-100 120, -80 140, -40 140 L0 140 C40 140, 60 120, 60 100" 
          stroke="white" stroke-width="16" stroke-linecap="round" stroke-linejoin="round" fill="none"/>
  </g>
  
  <!-- Decorative circles -->
  <circle cx="256" cy="256" r="180" stroke="white" stroke-width="8" fill="none" opacity="0.2"/>
  <circle cx="256" cy="256" r="200" stroke="white" stroke-width="4" fill="none" opacity="0.1"/>
  
  <!-- Corner decorations -->
  <circle cx="100" cy="100" r="20" fill="white" opacity="0.15"/>
  <circle cx="412" cy="100" r="20" fill="white" opacity="0.15"/>
  <circle cx="100" cy="412" r="20" fill="white" opacity="0.15"/>
  <circle cx="412" cy="412" r="20" fill="white" opacity="0.15"/>
  
  <!-- Text -->
  <text x="256" y="450" font-family="Arial, sans-serif" font-size="32" font-weight="bold" text-anchor="middle" fill="white">MONEY MAKER</text>
  <text x="256" y="480" font-family="Arial, sans-serif" font-size="20" text-anchor="middle" fill="white" opacity="0.8">PLATFORM</text>
</svg>